<svg width="142" height="82" viewBox="0 0 142 82" fill="none" xmlns="http://www.w3.org/2000/svg">
<mask id="mask0_401_9" style="mask-type:alpha" maskUnits="userSpaceOnUse" x="73" y="0" width="69" height="74">
<path d="M141.646 73.7172L79.6687 70.4552C76.1115 70.268 73.3232 67.3291 73.3232 63.767V57.4994C73.3232 54.1265 74.9113 50.9504 77.6096 48.9266L141.646 0.898994V73.7172Z" fill="url(#paint0_linear_401_9)"/>
</mask>
<g mask="url(#mask0_401_9)">
<g filter="url(#filter0_f_401_9)">
<path d="M169.066 75.5152L87.797 69.9104C82.1783 69.5229 77.8184 64.852 77.8184 59.2199V58.1714C77.8184 53.2957 81.1098 49.0346 85.8273 47.803L169.066 26.0707V75.5152Z" fill="url(#paint1_diamond_401_9)" fill-opacity="0.5"/>
</g>
</g>
<path d="M36.4646 66.1927L77.123 70.121V0L36.4646 66.1927Z" fill="url(#paint2_linear_401_9)"/>
<path d="M77.1227 70.1215V0.000442505L115.031 63.5415L77.1227 70.1215Z" fill="url(#paint3_linear_401_9)"/>
<mask id="mask1_401_9" style="mask-type:alpha" maskUnits="userSpaceOnUse" x="38" y="8" width="69" height="74">
<path d="M106.979 81.7172L45.0017 78.4552C41.4445 78.268 38.6562 75.3291 38.6562 71.767V70.5208C38.6562 67.3598 40.0518 64.3601 42.4697 62.324L106.979 8V81.7172Z" fill="black"/>
</mask>
<g mask="url(#mask1_401_9)">
<g filter="url(#filter1_f_401_9)">
<path d="M106.979 70.9293L44.2998 77.4414C40.8011 77.8049 37.7568 75.0606 37.7568 71.543C37.7568 68.2378 40.459 65.5705 43.764 65.6134L106.979 66.4344V70.9293Z" fill="url(#paint4_linear_401_9)" fill-opacity="0.5"/>
</g>
</g>
<rect y="40.8382" width="44.0505" height="37.5245" fill="url(#paint5_linear_401_9)"/>
<path d="M2.84197 32.2727L0 40.8381H44.0505V32.2727H2.84197Z" fill="url(#paint6_linear_401_9)"/>
<defs>
<filter id="filter0_f_401_9" x="51.0284" y="-0.719191" width="144.827" height="103.024" filterUnits="userSpaceOnUse" color-interpolation-filters="sRGB">
<feFlood flood-opacity="0" result="BackgroundImageFix"/>
<feBlend mode="normal" in="SourceGraphic" in2="BackgroundImageFix" result="shape"/>
<feGaussianBlur stdDeviation="13.395" result="effect1_foregroundBlur_401_9"/>
</filter>
<filter id="filter1_f_401_9" x="10.9669" y="38.823" width="122.802" height="65.4408" filterUnits="userSpaceOnUse" color-interpolation-filters="sRGB">
<feFlood flood-opacity="0" result="BackgroundImageFix"/>
<feBlend mode="normal" in="SourceGraphic" in2="BackgroundImageFix" result="shape"/>
<feGaussianBlur stdDeviation="13.395" result="effect1_foregroundBlur_401_9"/>
</filter>
<linearGradient id="paint0_linear_401_9" x1="87.2576" y1="61.5808" x2="141.646" y2="94.3939" gradientUnits="userSpaceOnUse">
<stop/>
<stop offset="1" stop-opacity="0"/>
</linearGradient>
<radialGradient id="paint1_diamond_401_9" cx="0" cy="0" r="1" gradientUnits="userSpaceOnUse" gradientTransform="translate(98.0456 58.8839) rotate(14.1723) scale(45.8969 20.4601)">
<stop/>
<stop offset="1" stop-opacity="0"/>
</radialGradient>
<linearGradient id="paint2_linear_401_9" x1="25.0152" y1="51.3252" x2="56.7938" y2="70.121" gradientUnits="userSpaceOnUse">
<stop stop-color="#C897F9"/>
<stop offset="1" stop-color="#77F2FC"/>
</linearGradient>
<linearGradient id="paint3_linear_401_9" x1="96.077" y1="0.000442505" x2="96.077" y2="70.1215" gradientUnits="userSpaceOnUse">
<stop stop-color="#C897F9"/>
<stop offset="1" stop-color="#77F2FC"/>
</linearGradient>
<linearGradient id="paint4_linear_401_9" x1="37.7568" y1="80.8182" x2="106.979" y2="80.8182" gradientUnits="userSpaceOnUse">
<stop/>
<stop offset="1" stop-opacity="0"/>
</linearGradient>
<linearGradient id="paint5_linear_401_9" x1="22.0253" y1="40.8382" x2="22.0253" y2="78.3627" gradientUnits="userSpaceOnUse">
<stop stop-color="#C897F9"/>
<stop offset="1" stop-color="#77F2FC"/>
</linearGradient>
<linearGradient id="paint6_linear_401_9" x1="22.0253" y1="32.2727" x2="22.0253" y2="40.8381" gradientUnits="userSpaceOnUse">
<stop stop-color="#C897F9"/>
<stop offset="1" stop-color="#77F2FC"/>
</linearGradient>
</defs>
</svg>
